<svg width="56" height="68" viewBox="0 0 56 68" fill="none" xmlns="http://www.w3.org/2000/svg">
<path d="M46.3673 38.1164C44.4968 28.7026 53.4321 23.1815 53.4321 23.1815C53.4321 23.1815 49.9508 18.1448 44.1 16.8491C38.2521 15.5505 35.3252 17.173 32.4041 18.3898C29.4802 19.6096 28.0211 19.6096 28.0211 19.6096C23.8016 19.6096 20.717 15.142 12.6777 17.1759C7.13915 18.5737 1.30867 24.9673 0.255239 32.5983C-0.798195 40.232 1.47507 49.9727 5.85804 57.5219C10.241 65.077 14.7058 67.9162 17.8748 67.9979C21.0439 68.0767 24.2072 65.7277 28.0211 65.1557C31.8381 64.5895 34.1871 66.5389 37.931 67.5924C41.6603 68.643 42.9677 67.6683 47.2631 64.0147C51.5702 60.3612 55.4689 49.8823 55.4689 49.8823C55.4689 49.8823 48.2378 47.536 46.3673 38.1164Z" fill="black"/>
<path d="M38.0857 10.759C42.2293 6.53665 40.8258 0 40.8258 0C40.8258 0 35.0071 1.02137 31.1084 5.07751C27.2127 9.13662 27.8576 15.5477 27.8576 15.5477C27.8576 15.5477 33.9419 14.9787 38.0857 10.759Z" fill="black"/>
</svg>
