<svg width="759" height="400" viewBox="0 0 759 400" fill="none" xmlns="http://www.w3.org/2000/svg">
<path d="M679.368 316.177C679.368 150.564 545.112 16.3091 379.5 16.3091C213.888 16.3091 79.6324 150.564 79.6324 316.177" stroke="#A7CEFC" stroke-width="2" stroke-dasharray="15 15"/>
<line x1="78.0072" y1="314.677" x2="679.368" y2="314.677" stroke="#A7CEFC" stroke-width="3" stroke-dasharray="15 15"/>
<line x1="200.311" y1="74.7578" x2="326.271" y2="250.29" stroke="#A7CEFC" stroke-width="3" stroke-dasharray="15 15"/>
<line x1="580.97" y1="93.7235" x2="456.252" y2="251.283" stroke="#A7CEFC" stroke-width="3" stroke-dasharray="15 15"/>
<rect x="324.115" y="249.414" width="133.525" height="133.525" rx="8.5" stroke="#A7CEFC" stroke-width="3" stroke-dasharray="15 15"/>
<g filter="url(#filter0_d_44_451)">
<rect x="350.245" y="275.544" width="81.2649" height="81.2649" rx="10" fill="white"/>
</g>
<g filter="url(#filter1_d_44_451)">
<rect x="39" y="275.544" width="81.2649" height="81.2649" rx="10" fill="white"/>
</g>
<path d="M77.8097 319.305C77.4196 319.305 77.0295 319.157 76.7324 318.859C76.1374 318.264 76.1374 317.3 76.7324 316.704L86.6068 306.83C87.2011 306.235 88.1671 306.235 88.7614 306.83C89.3564 307.425 89.3564 308.39 88.7614 308.985L78.8869 318.859C78.5898 319.157 78.1997 319.305 77.8097 319.305Z" fill="#FFE492"/>
<path d="M77.8091 319.306C77.4191 319.306 77.0297 319.157 76.7319 318.859L71.7539 313.882C71.1589 313.287 71.1589 312.323 71.7539 311.728C72.3481 311.132 73.3134 311.132 73.9084 311.728L78.8864 316.705C79.4814 317.3 79.4814 318.264 78.8864 318.859C78.5893 319.157 78.1992 319.306 77.8091 319.306Z" fill="#FFE492"/>
<path d="M79.631 335.172C79.4725 335.172 79.3118 335.147 79.1533 335.095C69.4137 331.882 62.8701 322.833 62.8701 312.576C62.8701 311.735 63.5527 311.052 64.3938 311.052C65.2349 311.052 65.9175 311.735 65.9175 312.576C65.9175 321.514 71.6201 329.401 80.1079 332.201C80.9071 332.464 81.3414 333.326 81.0778 334.125C80.8667 334.766 80.271 335.172 79.631 335.172Z" fill="#FFE492"/>
<path d="M64.3938 314.1C63.5527 314.1 62.8701 313.417 62.8701 312.576V301.797C62.8701 300.956 63.5527 300.273 64.3938 300.273C65.2349 300.273 65.9176 300.956 65.9176 301.797V312.576C65.9176 313.418 65.2349 314.1 64.3938 314.1Z" fill="#FFE492"/>
<path d="M64.3945 303.321C63.6463 303.321 62.9934 302.769 62.8868 302.006C62.771 301.173 63.3523 300.404 64.1865 300.288C69.3336 299.572 74.3017 298.034 78.9536 295.716C79.7071 295.341 80.6221 295.646 80.9969 296.4C81.3725 297.153 81.0655 298.068 80.3128 298.443C75.3645 300.909 70.0802 302.544 64.6055 303.306C64.5347 303.316 64.4638 303.321 64.3945 303.321Z" fill="#FFE492"/>
<path d="M79.6324 335.172C78.9932 335.172 78.3966 334.766 78.1856 334.125C77.922 333.326 78.3563 332.464 79.1555 332.201C87.6433 329.402 93.3458 321.515 93.3458 312.576C93.3458 311.735 94.0285 311.052 94.8695 311.052C95.7106 311.052 96.3933 311.735 96.3933 312.576C96.3933 322.832 89.8497 331.882 80.1093 335.095C79.9508 335.148 79.7908 335.172 79.6324 335.172Z" fill="#FFE492"/>
<path d="M94.8704 314.1C94.0293 314.1 93.3467 313.417 93.3467 312.576V301.797C93.3467 300.956 94.0293 300.273 94.8704 300.273C95.7115 300.273 96.3941 300.956 96.3941 301.797V312.576C96.3941 313.418 95.7115 314.1 94.8704 314.1Z" fill="#FFE492"/>
<path d="M94.8719 303.321C94.8018 303.321 94.7309 303.316 94.6601 303.306C89.1854 302.544 83.9011 300.909 78.9529 298.443C78.2002 298.068 77.8931 297.153 78.2687 296.4C78.6436 295.646 79.5585 295.341 80.312 295.716C84.9639 298.033 89.932 299.572 95.0791 300.288C95.9126 300.404 96.4946 301.174 96.3788 302.006C96.2737 302.769 95.6208 303.321 94.8719 303.321Z" fill="#FFE492"/>
<g filter="url(#filter2_d_44_451)">
<rect x="638.735" y="275.544" width="81.2649" height="81.2649" rx="10" fill="white"/>
</g>
<g clip-path="url(#clip0_44_451)">
<path d="M693.08 309.701H689.648V301.87C689.648 296.315 685.034 291.797 679.363 291.797C673.692 291.797 669.078 296.315 669.078 301.87V309.701H665.653C662.502 309.701 659.939 312.264 659.939 315.414V334.842C659.939 337.993 662.502 340.556 665.653 340.556H693.08C696.231 340.556 698.794 337.993 698.794 334.842V315.414C698.794 312.264 696.231 309.701 693.08 309.701ZM672.887 301.87C672.887 298.416 675.792 295.606 679.363 295.606C682.934 295.606 685.839 298.416 685.839 301.87V309.701H672.887V301.87ZM694.985 334.842C694.985 335.892 694.13 336.747 693.08 336.747H665.653C664.603 336.747 663.749 335.892 663.749 334.842V315.414C663.749 314.364 664.603 313.51 665.653 313.51H693.08C694.13 313.51 694.985 314.364 694.985 315.414V334.842Z" fill="#4F9CF9"/>
<path d="M679.367 319.033C677.421 319.033 675.844 320.611 675.844 322.557C675.844 323.799 676.487 324.891 677.459 325.518V329.699C677.459 330.751 678.312 331.604 679.364 331.604C680.415 331.604 681.268 330.751 681.268 329.699V325.523C682.244 324.896 682.891 323.802 682.891 322.557C682.891 320.611 681.313 319.033 679.367 319.033Z" fill="#4F9CF9"/>
</g>
<g filter="url(#filter3_d_44_451)">
<rect x="538.779" y="35" width="81.2649" height="81.2649" rx="10" fill="white"/>
</g>
<g clip-path="url(#clip1_44_451)">
<path d="M571.708 51.2529C561.881 51.2529 555.032 54.6655 555.032 57.7284C555.032 60.7912 561.881 64.2038 571.708 64.2038C581.535 64.2038 588.384 60.7911 588.384 57.7284C588.384 54.6656 581.536 51.2529 571.708 51.2529Z" fill="#FFE492"/>
<path d="M555.032 87.48V93.5365C555.032 96.5993 561.881 100.012 571.708 100.012C576.113 100.012 580.27 99.3183 583.414 98.0585C585.464 97.2375 586.981 96.2192 587.77 95.161C586.283 93.9974 584.566 92.3244 583.07 90.0162C579.777 91.0705 575.885 91.6238 571.708 91.6238C566.453 91.6238 561.537 90.7185 557.866 89.0745C556.795 88.5951 555.848 88.0607 555.032 87.48V87.48Z" fill="#FFE492"/>
<path d="M555.032 75.5713L555.032 81.5452C555.032 84.6079 561.881 88.0206 571.708 88.0206C575.193 88.0206 578.537 87.5835 581.339 86.7748C580.323 84.426 579.666 81.8333 579.377 79.0275C576.98 79.4783 574.369 79.7135 571.708 79.7135C566.419 79.7135 561.48 78.7979 557.801 77.1354C556.757 76.6635 555.831 76.1394 555.032 75.5713Z" fill="#FFE492"/>
<path d="M555.032 63.6577V69.6357C555.032 72.6984 561.881 76.1111 571.708 76.1111C574.337 76.1111 576.899 75.8635 579.205 75.3902C579.209 74.824 579.378 73.3507 580.742 72.9763C582.891 72.3862 584.395 70.9697 584.528 69.0266C584.583 68.2267 585.584 67.1057 586.33 67.1169H588.384V63.6577C587.585 64.2258 586.66 64.75 585.616 65.2225C581.932 66.889 576.993 67.8069 571.708 67.8069C566.424 67.8069 561.485 66.889 557.801 65.2225C556.756 64.75 555.831 64.2258 555.032 63.6577V63.6577Z" fill="#FFE492"/>
<path d="M598.683 70.7197H587.935C587.334 73.2184 585.412 75.2683 582.813 76.1621C583.016 88.1561 589.91 92.7295 592.949 94.1634C593.123 94.2453 593.329 94.2366 593.5 94.1402C596.552 92.4207 603.47 87.3026 603.792 76.1579C601.199 75.262 599.283 73.2147 598.683 70.7197ZM592.665 86.339C591.935 87.0892 590.68 87.048 590.001 86.2517L586.576 82.2328L589.319 79.8961L591.46 82.4087L597.434 76.2647L600.018 78.7759L592.665 86.339Z" fill="#FFE492"/>
</g>
<g filter="url(#filter4_d_44_451)">
<rect x="158.459" y="35" width="81.2649" height="81.2649" rx="10" fill="white"/>
</g>
<g clip-path="url(#clip2_44_451)">
<path d="M217.25 55.8485C211.123 49.721 201.153 49.7211 195.025 55.8485C190.84 60.0336 189.387 66.2027 191.198 71.7983L173.506 89.491C173.238 89.7589 173.087 90.1223 173.087 90.5012V98.5832C173.087 99.3723 173.727 100.012 174.516 100.012H182.598C182.977 100.012 183.34 99.8613 183.608 99.5933L185.629 97.5725C185.938 97.2637 186.088 96.8309 186.038 96.3972L185.786 94.2276L188.793 93.944C189.476 93.8797 190.017 93.3388 190.082 92.6558L190.365 89.6476L192.535 89.8998C192.94 89.9471 193.346 89.8188 193.65 89.5476C193.955 89.2766 194.129 88.8884 194.129 88.4807V85.8201H196.741C197.117 85.8201 197.478 85.6718 197.746 85.4074L201.295 81.8989C206.892 83.7131 213.064 82.2602 217.251 78.0738C223.378 71.9463 223.378 61.976 217.25 55.8485ZM215.23 76.0534C211.624 79.6594 206.215 80.7849 201.45 78.9212C200.924 78.7156 200.326 78.8389 199.925 79.2357L196.154 82.9627H192.7C191.911 82.9627 191.272 83.6024 191.272 84.3914V86.8763L189.245 86.6408C188.863 86.5965 188.48 86.7077 188.181 86.9494C187.882 87.1912 187.694 87.5431 187.658 87.9257L187.348 91.2102L184.064 91.5197C183.681 91.5558 183.329 91.7445 183.087 92.0432C182.845 92.3419 182.734 92.7255 182.778 93.1071L183.12 96.0407L182.006 97.1546H175.944V91.0932L193.857 73.1803C194.259 72.7789 194.384 72.1781 194.178 71.6496C192.314 66.8844 193.44 61.4753 197.046 57.8692C202.059 52.8558 210.217 52.8558 215.23 57.8692C220.243 62.8825 220.243 71.04 215.23 76.0534Z" fill="#4F9CF9"/>
<path d="M213.209 59.8896C211.537 58.2184 208.818 58.2185 207.147 59.8896C205.476 61.5608 205.476 64.2799 207.147 65.9511C208.818 67.6222 211.537 67.6224 213.209 65.9511C214.88 64.2799 214.88 61.5608 213.209 59.8896ZM211.188 63.9306C210.631 64.4876 209.725 64.4877 209.168 63.9306C208.611 63.3736 208.611 62.4673 209.168 61.9102C209.726 61.3517 210.63 61.3517 211.188 61.9102C211.747 62.4686 211.746 63.3722 211.188 63.9306Z" fill="#4F9CF9"/>
</g>
<circle cx="381.938" cy="16.309" r="13.0024" fill="#A7CEFC"/>
<circle cx="283.607" cy="193.467" r="13.0024" fill="#A7CEFC"/>
<circle cx="562.346" cy="316.177" r="13.0024" fill="#A7CEFC"/>
<g clip-path="url(#clip3_44_451)">
<path d="M364 299.487V308.569C364 311.335 367.454 312.81 369.565 310.874L379.641 301.792C381.848 299.81 380.408 296.306 377.386 296.306H367.31C365.487 296.306 364 297.735 364 299.487Z" fill="#5986EF"/>
<path d="M411.69 296.306H401.614C398.64 296.306 397.152 299.81 399.359 301.792L409.435 310.874C411.546 312.764 415 311.335 415 308.569V299.487C415 297.735 413.513 296.306 411.69 296.306Z" fill="#5986EF"/>
<path d="M391.779 318.48L409.435 334.43C411.546 336.32 415 334.891 415 332.125V322.952C415 322.076 414.616 321.246 413.944 320.647L391.779 300.593C390.484 299.441 388.516 299.441 387.221 300.593L365.056 320.647C364.384 321.246 364 322.076 364 322.952V332.125C364 334.891 367.454 336.366 369.565 334.43L387.221 318.48C388.516 317.327 390.484 317.327 391.779 318.48Z" fill="#5986EF"/>
</g>
<defs>
<filter id="filter0_d_44_451" x="311.245" y="240.544" width="159.265" height="159.265" filterUnits="userSpaceOnUse" color-interpolation-filters="sRGB">
<feFlood flood-opacity="0" result="BackgroundImageFix"/>
<feColorMatrix in="SourceAlpha" type="matrix" values="0 0 0 0 0 0 0 0 0 0 0 0 0 0 0 0 0 0 127 0" result="hardAlpha"/>
<feMorphology radius="11" operator="erode" in="SourceAlpha" result="effect1_dropShadow_44_451"/>
<feOffset dy="4"/>
<feGaussianBlur stdDeviation="25"/>
<feComposite in2="hardAlpha" operator="out"/>
<feColorMatrix type="matrix" values="0 0 0 0 0 0 0 0 0 0 0 0 0 0 0 0 0 0 0.2 0"/>
<feBlend mode="normal" in2="BackgroundImageFix" result="effect1_dropShadow_44_451"/>
<feBlend mode="normal" in="SourceGraphic" in2="effect1_dropShadow_44_451" result="shape"/>
</filter>
<filter id="filter1_d_44_451" x="0" y="240.544" width="159.265" height="159.265" filterUnits="userSpaceOnUse" color-interpolation-filters="sRGB">
<feFlood flood-opacity="0" result="BackgroundImageFix"/>
<feColorMatrix in="SourceAlpha" type="matrix" values="0 0 0 0 0 0 0 0 0 0 0 0 0 0 0 0 0 0 127 0" result="hardAlpha"/>
<feMorphology radius="11" operator="erode" in="SourceAlpha" result="effect1_dropShadow_44_451"/>
<feOffset dy="4"/>
<feGaussianBlur stdDeviation="25"/>
<feComposite in2="hardAlpha" operator="out"/>
<feColorMatrix type="matrix" values="0 0 0 0 0 0 0 0 0 0 0 0 0 0 0 0 0 0 0.2 0"/>
<feBlend mode="normal" in2="BackgroundImageFix" result="effect1_dropShadow_44_451"/>
<feBlend mode="normal" in="SourceGraphic" in2="effect1_dropShadow_44_451" result="shape"/>
</filter>
<filter id="filter2_d_44_451" x="599.735" y="240.544" width="159.265" height="159.265" filterUnits="userSpaceOnUse" color-interpolation-filters="sRGB">
<feFlood flood-opacity="0" result="BackgroundImageFix"/>
<feColorMatrix in="SourceAlpha" type="matrix" values="0 0 0 0 0 0 0 0 0 0 0 0 0 0 0 0 0 0 127 0" result="hardAlpha"/>
<feMorphology radius="11" operator="erode" in="SourceAlpha" result="effect1_dropShadow_44_451"/>
<feOffset dy="4"/>
<feGaussianBlur stdDeviation="25"/>
<feComposite in2="hardAlpha" operator="out"/>
<feColorMatrix type="matrix" values="0 0 0 0 0 0 0 0 0 0 0 0 0 0 0 0 0 0 0.2 0"/>
<feBlend mode="normal" in2="BackgroundImageFix" result="effect1_dropShadow_44_451"/>
<feBlend mode="normal" in="SourceGraphic" in2="effect1_dropShadow_44_451" result="shape"/>
</filter>
<filter id="filter3_d_44_451" x="499.779" y="0" width="159.265" height="159.265" filterUnits="userSpaceOnUse" color-interpolation-filters="sRGB">
<feFlood flood-opacity="0" result="BackgroundImageFix"/>
<feColorMatrix in="SourceAlpha" type="matrix" values="0 0 0 0 0 0 0 0 0 0 0 0 0 0 0 0 0 0 127 0" result="hardAlpha"/>
<feMorphology radius="11" operator="erode" in="SourceAlpha" result="effect1_dropShadow_44_451"/>
<feOffset dy="4"/>
<feGaussianBlur stdDeviation="25"/>
<feComposite in2="hardAlpha" operator="out"/>
<feColorMatrix type="matrix" values="0 0 0 0 0 0 0 0 0 0 0 0 0 0 0 0 0 0 0.2 0"/>
<feBlend mode="normal" in2="BackgroundImageFix" result="effect1_dropShadow_44_451"/>
<feBlend mode="normal" in="SourceGraphic" in2="effect1_dropShadow_44_451" result="shape"/>
</filter>
<filter id="filter4_d_44_451" x="119.459" y="0" width="159.265" height="159.265" filterUnits="userSpaceOnUse" color-interpolation-filters="sRGB">
<feFlood flood-opacity="0" result="BackgroundImageFix"/>
<feColorMatrix in="SourceAlpha" type="matrix" values="0 0 0 0 0 0 0 0 0 0 0 0 0 0 0 0 0 0 127 0" result="hardAlpha"/>
<feMorphology radius="11" operator="erode" in="SourceAlpha" result="effect1_dropShadow_44_451"/>
<feOffset dy="4"/>
<feGaussianBlur stdDeviation="25"/>
<feComposite in2="hardAlpha" operator="out"/>
<feColorMatrix type="matrix" values="0 0 0 0 0 0 0 0 0 0 0 0 0 0 0 0 0 0 0.2 0"/>
<feBlend mode="normal" in2="BackgroundImageFix" result="effect1_dropShadow_44_451"/>
<feBlend mode="normal" in="SourceGraphic" in2="effect1_dropShadow_44_451" result="shape"/>
</filter>
<clipPath id="clip0_44_451">
<rect width="48.7589" height="48.7589" fill="white" transform="translate(654.988 291.797)"/>
</clipPath>
<clipPath id="clip1_44_451">
<rect width="48.7589" height="48.7589" fill="white" transform="translate(555.032 51.2529)"/>
</clipPath>
<clipPath id="clip2_44_451">
<rect width="48.7589" height="48.7589" fill="white" transform="translate(173.087 51.2529)"/>
</clipPath>
<clipPath id="clip3_44_451">
<rect width="51" height="39" fill="white" transform="translate(364 296.306)"/>
</clipPath>
</defs>
</svg>
