<svg width="280" height="71" viewBox="0 0 280 71" fill="none" xmlns="http://www.w3.org/2000/svg">
<path d="M89.2852 55.2904L92.7711 47.24C96.5382 50.0352 101.542 51.4888 106.49 51.4888C110.145 51.4888 112.45 50.0911 112.45 47.9667C112.394 42.0407 90.5783 46.6809 90.4097 31.81C90.3534 24.2628 97.1004 18.4486 106.659 18.4486C112.337 18.4486 118.016 19.8463 122.064 23.0329L118.803 31.251C115.092 28.903 110.482 27.2258 106.096 27.2258C103.116 27.2258 101.149 28.6234 101.149 30.4124C101.205 36.2266 123.189 33.04 123.414 47.24C123.414 54.9549 116.835 60.3778 107.39 60.3778C100.474 60.3778 94.1205 58.7565 89.2852 55.2904ZM223.044 44.3329C221.301 47.3518 218.04 49.4203 214.273 49.4203C208.707 49.4203 204.209 44.9478 204.209 39.4132C204.209 33.8785 208.707 29.4061 214.273 29.4061C218.04 29.4061 221.301 31.4746 223.044 34.4935L232.659 29.1825C229.06 22.8093 222.145 18.4486 214.273 18.4486C202.635 18.4486 193.189 27.8407 193.189 39.4132C193.189 50.9856 202.635 60.3778 214.273 60.3778C222.201 60.3778 229.06 56.073 232.659 49.6439L223.044 44.3329ZM128.249 1.06201H140.281V59.5951H128.249V1.06201ZM237.382 1.06201V59.5951H249.414V42.0408L263.695 59.5951H279.1L260.94 38.7423L277.751 19.2872H263.02L249.414 35.4439V1.06201H237.382ZM176.04 44.4447C174.297 47.2959 170.699 49.4203 166.651 49.4203C161.084 49.4203 156.586 44.9478 156.586 39.4132C156.586 33.8785 161.084 29.4061 166.651 29.4061C170.699 29.4061 174.297 31.6423 176.04 34.5494V44.4447ZM176.04 19.2872V24.0392C174.072 20.7407 169.181 18.4486 164.064 18.4486C153.494 18.4486 145.173 27.7289 145.173 39.3573C145.173 50.9856 153.494 60.3778 164.064 60.3778C169.181 60.3778 174.072 58.0856 176.04 54.7872V59.5392H188.072V19.2872H176.04Z" fill="black"/>
<path d="M14.9 44.3888C14.9 48.4699 11.5827 51.7683 7.47827 51.7683C3.37385 51.7683 0.0565796 48.4699 0.0565796 44.3888C0.0565796 40.3077 3.37385 37.0093 7.47827 37.0093H14.9V44.3888ZM18.6108 44.3888C18.6108 40.3077 21.9281 37.0093 26.0325 37.0093C30.1369 37.0093 33.4542 40.3077 33.4542 44.3888V62.8376C33.4542 66.9187 30.1369 70.2171 26.0325 70.2171C21.9281 70.2171 18.6108 66.9187 18.6108 62.8376V44.3888Z" fill="#E01E5A"/>
<path d="M26.0321 14.7591C21.9277 14.7591 18.6104 11.4606 18.6104 7.37953C18.6104 3.29842 21.9277 0 26.0321 0C30.1365 0 33.4538 3.29842 33.4538 7.37953V14.7591H26.0321ZM26.0321 18.5047C30.1365 18.5047 33.4538 21.8032 33.4538 25.8843C33.4538 29.9654 30.1365 33.2638 26.0321 33.2638H7.42169C3.31727 33.2638 0 29.9654 0 25.8843C0 21.8032 3.31727 18.5047 7.42169 18.5047H26.0321Z" fill="#36C5F0"/>
<path d="M55.7752 25.8843C55.7752 21.8032 59.0924 18.5047 63.1968 18.5047C67.3013 18.5047 70.6185 21.8032 70.6185 25.8843C70.6185 29.9654 67.3013 33.2638 63.1968 33.2638H55.7752V25.8843ZM52.0643 25.8843C52.0643 29.9654 48.747 33.2638 44.6426 33.2638C40.5382 33.2638 37.2209 29.9654 37.2209 25.8843V7.37953C37.2209 3.29842 40.5382 0 44.6426 0C48.747 0 52.0643 3.29842 52.0643 7.37953V25.8843Z" fill="#2EB67D"/>
<path d="M44.6426 55.4581C48.747 55.4581 52.0643 58.7565 52.0643 62.8376C52.0643 66.9187 48.747 70.2171 44.6426 70.2171C40.5382 70.2171 37.2209 66.9187 37.2209 62.8376V55.4581H44.6426ZM44.6426 51.7683C40.5382 51.7683 37.2209 48.4699 37.2209 44.3888C37.2209 40.3077 40.5382 37.0093 44.6426 37.0093H63.2531C67.3575 37.0093 70.6748 40.3077 70.6748 44.3888C70.6748 48.4699 67.3575 51.7683 63.2531 51.7683H44.6426Z" fill="#ECB22E"/>
</svg>
