<svg width="105" height="17" viewBox="0 0 105 17" fill="none" xmlns="http://www.w3.org/2000/svg">
<path d="M2.5058 9.41763C2.44316 9.41763 1.06497 9.41763 0.438515 9.41763C0.104408 9.41763 0 9.29234 0 8.97912C0 8.14385 0 7.2877 0 6.45244C0 6.11833 0.12529 6.01392 0.438515 6.01392H2.5058C2.5058 5.95128 2.5058 4.74014 2.5058 4.17633C2.5058 3.34107 2.65197 2.54756 3.06961 1.81671C3.50812 1.06497 4.13457 0.563805 4.92807 0.271462C5.45012 0.0835265 5.97216 0 6.53596 0H8.58237C8.87471 0 9 0.12529 9 0.417633V2.79814C9 3.09049 8.87471 3.21578 8.58237 3.21578C8.01856 3.21578 7.45476 3.21578 6.89095 3.23666C6.32715 3.23666 6.0348 3.50812 6.0348 4.09281C6.01392 4.71926 6.0348 5.32483 6.0348 5.97216H8.45708C8.79118 5.97216 8.91647 6.09745 8.91647 6.43156V8.95824C8.91647 9.29234 8.81207 9.39675 8.45708 9.39675C7.70534 9.39675 6.09745 9.39675 6.0348 9.39675V16.2042C6.0348 16.5592 5.93039 16.6845 5.55452 16.6845C4.67749 16.6845 3.82135 16.6845 2.94432 16.6845C2.63109 16.6845 2.5058 16.5592 2.5058 16.2459C2.5058 14.0534 2.5058 9.48028 2.5058 9.41763Z" fill="#F7F7EE"/>
<path d="M58 3.07073C57.3678 3.34805 56.6942 3.53186 55.9919 3.62111C56.7144 3.18973 57.2658 2.51186 57.5251 1.6948C56.8514 2.09642 56.1077 2.38011 55.3151 2.53842C54.6754 1.85736 53.7638 1.43555 52.7693 1.43555C50.8398 1.43555 49.2864 3.00167 49.2864 4.92161C49.2864 5.19786 49.3098 5.46348 49.3672 5.71636C46.4697 5.57505 43.9059 4.18636 42.1836 2.07092C41.8829 2.59261 41.7066 3.18973 41.7066 3.83255C41.7066 5.03955 42.3281 6.10948 43.2546 6.72892C42.6947 6.7183 42.1454 6.55573 41.68 6.29967C41.68 6.3103 41.68 6.32411 41.68 6.33792C41.68 8.03155 42.8881 9.4383 44.4722 9.76236C44.1886 9.83992 43.8794 9.87711 43.5585 9.87711C43.3354 9.87711 43.1101 9.86436 42.8987 9.81761C43.3503 11.1978 44.6316 12.2125 46.1553 12.2454C44.9695 13.173 43.4639 13.7319 41.8341 13.7319C41.5483 13.7319 41.2741 13.7191 41 13.684C42.5438 14.6796 44.3734 15.248 46.3465 15.248C52.7597 15.248 56.266 9.93555 56.266 5.33067C56.266 5.17661 56.2607 5.02786 56.2533 4.88017C56.9449 4.3893 57.5261 3.77623 58 3.07073Z" fill="#F7F7EE"/>
<path d="M104.996 15.8415V15.8408H105V10.3223C105 7.62261 104.425 5.54297 101.3 5.54297C99.7984 5.54297 98.7905 6.37558 98.379 7.16492H98.3355V5.79501H95.3732V15.8408H98.4578V10.8665C98.4578 9.55679 98.7036 8.29032 100.309 8.29032C101.891 8.29032 101.915 9.78501 101.915 10.9505V15.8415H104.996Z" fill="#F7F7EE"/>
<path d="M90.2239 5.76758H93.3582V15.6183H90.2239V5.76758Z" fill="#F7F7EE"/>
<path d="M91.791 0.841797C90.8023 0.841797 90 1.64036 90 2.62449C90 3.60862 90.8023 4.42389 91.791 4.42389C92.7798 4.42389 93.5821 3.60862 93.5821 2.62449C93.5815 1.64036 92.7792 0.841797 91.791 0.841797V0.841797Z" fill="#F7F7EE"/>
</svg>
